<?xml version='1.0' encoding='utf-8'?>
<svg xmlns="http://www.w3.org/2000/svg" version="1.1" id="Dampfwolken" x="0px" y="0px" viewBox="0 0 1920 1080" style="enable-background:new 0 0 1920 1080;"> <style type="text/css"> .st0{display:none;fill:#5E5D5D;} .st1{fill:#FFFFFF;} .st2{fill:#E6E6E6;} </style> <rect y="3" class="st0" width="1920" height="1076"/> <g id="Dampfwolke"> <g> <path class="st1" d="M713.07,838.7c-2.07,2.57-3.73,5.69-5.06,9.09C709.36,844.8,711.04,841.75,713.07,838.7z"/> <path class="st1" d="M702.57,881.31c0,0-0.22-19.1,5.43-33.52C699.94,865.59,702.57,881.31,702.57,881.31z"/> <path class="st1" d="M1229.8,327.91c-18.27-31.27-36.54-26.91-36.54-26.91s3.26-24.73-36.54-45.81 c-39.8-21.09-84.17,4.36-84.17,4.36s2.61-26.18-31.32-43.63c-33.93-17.45-58.07,29.09-58.07,29.09s-43.72-7.27-37.85,23.27 c0,0-41.11-10.18-44.37,28.36c0,0-68.51-50.9-86.78-1.45c-18.27,49.45-9.13,68.36-9.13,68.36s-16.97-7.27-28.71,5.82 c-11.75,13.09-11.75,18.91-11.75,18.91s-51.04,4.68-26.75,67.63c0,0-16.96,50.9,27.41,63.99c44.37,13.09,54.81-32,54.81-32 s11.75,9.66,36.54,1.19c0,0,79.6,43.89,100.49,20.62c0,0,0.85,14.79,7.81,20.77c-7.51-2.4-19.62-4.7-26.09,2.5 c0,0-125.28-34.91-140.94,33.45c0,0-39.04-23.27-39.04,33.45c0,0-16.75,6.18-8.6,15.27c0,0-9.14-2.91-24.14-8.73 c-15.01-5.82-31.65,17.82-26.1,24c0,0-28.71,6.54-22.19,43.63c6.53,37.09,22.19,40,22.19,40s-11.09,39.27,14.36,48.72 c25.45,9.45,34.58,6.54,34.58,6.54s16.31,17.45,36.54,21.82c20.23,4.36,16.31,13.82,4.57,26.91 c-13.54,15.09-52.74-15.71-76.94,20.66c18.06-22.42,63.51,26.31,100.43-14.84c24.47-27.27,5.22-37.09,5.22-37.09 s17.22-15.9,5.39-29.09c-11.83-13.19-32.14-3.64-32.14-3.64s-20.23-7.27-20.23-26.18c0-18.91-37.85-18.91-37.85-18.91 s4.57-24.73-9.79-29.82c0,0,20.55-13.45,36.54,4.36c15.99,17.82,54.16,37.81,68.51,31.27c5.84-2.66,8.19-7.85,8.97-13.07 c2.98,9.88,11.51,21.25,34.75,23.25c42.41,3.64,34.37-15.27,34.37-15.27s21.1,30.54,47.2,15.27 c26.1-15.27,11.75-30.81,11.75-30.81s12.39-17.18,5.22-31.73c-7.18-14.54-22.84-13.09-22.84-13.09l-17.62-10.91 c0,0,36.87,12.73,48.94-0.73c0,0,9.79,30.91,37.19,30.91c0,0,25.61,43.45,64.6,0c0,0,38.5,12.73,47.63-26.54 c0,0,40.46-11.64,40.46-34.91c0-23.27-10.44-28.36-10.44-28.36s37.85-21.82,37.85-57.45c0-35.63-26.1-29.09-26.1-29.09 s-0.65-22.54-21.53-32.72c-20.88-10.18-29.36,3.64-29.36,3.64s-12.4-8.73-4.57-24.73c7.83-16,38.5,9.45,58.73,3.64 c20.23-5.82,49.92-41.09,28.06-65.45C1202.39,376.63,1248.07,359.18,1229.8,327.91z M1139.75,487.4 c12.34,12.34,3.43,23.52,8.87,28.95c5.43,5.43,10.56-1.42,10.56,11.81c0,13.24-19.43,31.24-19.43,31.24s19.3-32.93,8.87-32.93 c-10.44,0-14.94-2.32-14.94-13.57c0-11.25-12-25.5-12-25.5S1127.41,475.06,1139.75,487.4z M1170.88,314.9 c-10.95,0-6.6-17.25-18.1-17.25c0,0-2.87,8.01-6.35,4.53c-3.48-3.48-10.5-26.28-46.5-26.28c0,0,26.87-9,48.69,4.5 C1170.43,293.9,1181.82,314.9,1170.88,314.9z"/> </g> <path class="st2" d="M1058.18,293.12c0,0,11-19.22,30-19.22c19,0,20.45,13.74,20.45,13.74s28.56-10.11,44.15,5.48 c15.59,15.59,10.6,31.78,10.6,31.78s21.8,3.08,21.8,24.04c0,20.96-30.8,27.84-30.8,27.84s28.49-23.59,16.5-35.58 c-11.99-11.99-18.1-7.19-18.1-7.19s9.54-16.68-5.6-31.82c-15.14-15.14-44-9.07-44-9.07S1078.85,272.45,1058.18,293.12z"/> <path class="st2" d="M992.18,610.9c0,0-3.04,24,22.98,30c0,0,5.91,30,28.97,30c23.05,0,32.05-18,32.05-18s11.76-1.16,32.45-6 c20.68-4.84,18.75-27,18.75-27s29.8-9.71,18.8-31.86c0,0-14,18.86-32,18.86c0,0,3.33,34-43.84,34c0,0-0.16,10-19.16,10 c-19,0-29.7-16-29.7-16S992.18,632.9,992.18,610.9z"/> <path class="st2" d="M1021.18,466.29c-14-16.64-39.5-9.39-45.81-6.26c-2.43-14.72-9.15-40.2-27.19-49.45 c-26-13.32-53.16,16.32-53.16,16.32s-12.84-32-44.84-23.26c-32,8.74-27,44.59-27,44.59c0,10.79-16,62.67-60.99,50.16 c-16.96-4.71-24.59-11.91-27.53-19.05c0.46,15.2,6.46,33.44,30.55,40.55c44.37,13.09,54.81-32,54.81-32s11.75,9.66,36.54,1.19 c0,0,79.6,43.89,100.49,20.62c0,0,0.85,14.73,7.78,20.74C990.84,527.9,1047.75,497.86,1021.18,466.29z"/> <g> <path class="st2" d="M915.6,699.9c3.71,3.71,30.59-6,30.59-24s-30.59-25-30.59-4s-51.42-7-51.42-7s10,23.26-10,23.26 c-20,0-38.41-16.26-38.41-16.26s2.41,16.26-20.78,16.26c-23.19,0-36.81-23.26-53.81-23.26c-17,0-24,14-24,14 c11,0,11.53,22,11.53,33.57s8.48,13.43,22.48,13.43c14,0,21,30,26.83,44.16c5.83,14.16,12.17-5.41,30.14-5.41 s10.57,22.12,10.57,22.12s17.22-15.9,5.39-29.09c-11.83-13.19-32.14-3.64-32.14-3.64s-20.23-7.27-20.23-26.18 c0-18.91-37.85-18.91-37.85-18.91s4.57-24.73-9.79-29.82c0,0,20.55-13.45,36.54,4.36c15.99,17.82,54.16,37.81,68.51,31.27 c5.84-2.66,8.19-7.85,8.97-13.07c2.98,9.88,11.51,21.25,34.75,23.25c42.41,3.64,34.37-15.27,34.37-15.27s21.1,30.54,47.2,15.27 c4.35-2.55,7.58-5.1,9.93-7.59c-7.06-3.45-19.67-4.91-31.19-4.91C910.18,712.46,911.89,696.19,915.6,699.9z"/> </g> </g> </svg>